<!-- icon666.com - MILLIONS OF FREE VECTOR ICONS --><svg version="1.1" id="Capa_1" xmlns="http://www.w3.org/2000/svg" xmlns:xlink="http://www.w3.org/1999/xlink" x="0px" y="0px" viewBox="0 0 512.001 512.001" style="enable-background:new 0 0 512.001 512.001;" xml:space="preserve"><g><g><path d="M449.215,24.935h-79.714V10c0-5.523-4.477-10-10-10h-86.595c-5.523,0-10,4.477-10,10s4.477,10,10,10h76.596v73.835H289.75 v-4.75c0-18.61-15.141-33.75-33.75-33.75c-18.61,0-33.75,15.14-33.75,33.75v4.75H162.5V20h31.438c5.523,0,10-4.477,10-10 s-4.477-10-10-10H152.5c-5.523,0-10,4.477-10,10v14.935H62.786c-5.523,0-10,4.477-10,10v467.066c0,5.523,4.477,10,10,10h386.429 c5.522,0,10-4.477,10-10V34.935C459.215,29.413,454.738,24.935,449.215,24.935z M439.215,492.001H72.786V44.935H142.5v10.399 H93.186c-5.523,0-10,4.477-10,10v406.267c0,5.523,4.477,10,10,10h205.225c5.522,0,10-4.477,10-10s-4.478-10-10-10H103.186V75.335 H142.5v28.5c0,5.523,4.477,10,10,10h79.75c5.523,0,10-4.477,10-10v-14.75c0-7.582,6.168-13.75,13.75-13.75 c7.582,0,13.75,6.168,13.75,13.75v14.75c0,5.523,4.478,10,10,10h79.751c5.523,0,10-4.477,10-10v-28.5h39.315v386.267h-31.438 c-5.522,0-10,4.477-10,10s4.478,10,10,10h41.438c5.522,0,10-4.477,10-10V65.335c0-5.523-4.478-10-10-10h-49.315v-10.4h69.714 V492.001z"></path></g></g><g><g><path d="M358.252,193.418H245.31c-5.523,0-10,4.477-10,10c0,5.523,4.477,10,10,10h112.942c5.522,0,10-4.477,10-10 C368.252,197.895,363.774,193.418,358.252,193.418z"></path></g></g><g><g><path d="M219.775,177.833c-3.636-4.156-9.954-4.577-14.11-0.941l-35.374,30.952l-8.192-12.429 c-3.04-4.612-9.242-5.887-13.853-2.847c-4.612,3.039-5.886,9.241-2.847,13.853l14.5,22c1.59,2.412,4.145,4.019,7.007,4.407 c0.448,0.061,0.896,0.09,1.343,0.09c2.407,0,4.751-0.87,6.585-2.474l44-38.5C222.991,188.307,223.412,181.989,219.775,177.833z"></path></g></g><g><g><path d="M358.252,273.418H245.31c-5.523,0-10,4.477-10,10s4.477,10,10,10h112.942c5.522,0,10-4.477,10-10 S363.774,273.418,358.252,273.418z"></path></g></g><g><g><path d="M219.775,257.833c-3.636-4.156-9.954-4.577-14.11-0.941l-35.374,30.952l-8.192-12.429 c-3.04-4.612-9.242-5.887-13.853-2.847c-4.612,3.039-5.886,9.241-2.847,13.853l14.5,22c1.59,2.412,4.145,4.019,7.007,4.407 c0.448,0.06,0.896,0.09,1.343,0.09c2.407,0,4.751-0.87,6.585-2.474l44-38.5C222.991,268.307,223.412,261.989,219.775,257.833z"></path></g></g><g><g><path d="M358.252,353.418H245.31c-5.523,0-10,4.477-10,10s4.477,10,10,10h112.942c5.522,0,10-4.477,10-10 S363.775,353.418,358.252,353.418z"></path></g></g><g><g><path d="M183,328.416c-18.06,0-32.753,14.693-32.753,32.752c0,18.06,14.693,32.753,32.753,32.753s32.752-14.693,32.752-32.753 C215.752,343.109,201.06,328.416,183,328.416z M183,373.921c-7.032,0-12.753-5.721-12.753-12.753s5.721-12.752,12.753-12.752 c7.031,0,12.752,5.721,12.752,12.752C195.752,368.2,190.031,373.921,183,373.921z"></path></g></g><g><g><path d="M223.498,0h-0.475c-5.523,0-10,4.477-10,10s4.477,10,10,10h0.475c5.523,0,10-4.477,10-10S229.021,0,223.498,0z"></path></g></g><g><g><path d="M348.293,461.602h-0.475c-5.522,0-10,4.477-10,10s4.478,10,10,10h0.475c5.522,0,10-4.477,10-10 S353.816,461.602,348.293,461.602z"></path></g></g></svg>